<mxfile host="65bd71144e">
    <diagram id="rOZSbEzyaqEvwGihrRK6" name="Page-1">
        <mxGraphModel dx="778" dy="599" grid="1" gridSize="10" guides="1" tooltips="1" connect="1" arrows="1" fold="1" page="1" pageScale="1" pageWidth="850" pageHeight="1100" math="0" shadow="0">
            <root>
                <mxCell id="0"/>
                <mxCell id="118" value="bg" parent="0"/>
                <mxCell id="117" value="" style="rounded=0;whiteSpace=wrap;html=1;fillColor=#FFFFFF;" parent="118" vertex="1">
                    <mxGeometry x="20" y="10" width="590" height="550" as="geometry"/>
                </mxCell>
                <mxCell id="1" parent="0"/>
                <mxCell id="39" value="" style="rounded=0;whiteSpace=wrap;html=1;fontFamily=Courier New;fillColor=none;rotation=-180;" parent="1" vertex="1">
                    <mxGeometry x="225" y="85" width="170" height="445" as="geometry"/>
                </mxCell>
                <mxCell id="38" value="&lt;font style=&quot;font-size: 16px;&quot;&gt;Arduino&lt;br&gt;Nano V3&lt;/font&gt;" style="text;html=1;align=center;verticalAlign=middle;resizable=0;points=[];autosize=1;strokeColor=none;fillColor=none;fontFamily=Courier New;rotation=0;" parent="1" vertex="1">
                    <mxGeometry x="265" y="288" width="90" height="50" as="geometry"/>
                </mxCell>
                <mxCell id="40" value="USB" style="rounded=0;whiteSpace=wrap;html=1;fontFamily=Courier New;fillColor=none;rotation=0;" parent="1" vertex="1">
                    <mxGeometry x="282.5" y="45" width="55" height="60" as="geometry"/>
                </mxCell>
                <mxCell id="69" value="" style="endArrow=none;html=1;fontFamily=Courier New;" parent="1" edge="1">
                    <mxGeometry width="50" height="50" relative="1" as="geometry">
                        <mxPoint x="415" y="515" as="sourcePoint"/>
                        <mxPoint x="395" y="515" as="targetPoint"/>
                    </mxGeometry>
                </mxCell>
                <mxCell id="71" value="" style="endArrow=none;html=1;fontFamily=Courier New;" parent="1" edge="1">
                    <mxGeometry width="50" height="50" relative="1" as="geometry">
                        <mxPoint x="415" y="485" as="sourcePoint"/>
                        <mxPoint x="395" y="485" as="targetPoint"/>
                    </mxGeometry>
                </mxCell>
                <mxCell id="72" value="" style="endArrow=none;html=1;fontFamily=Courier New;" parent="1" edge="1">
                    <mxGeometry width="50" height="50" relative="1" as="geometry">
                        <mxPoint x="415" y="456" as="sourcePoint"/>
                        <mxPoint x="395" y="456" as="targetPoint"/>
                    </mxGeometry>
                </mxCell>
                <mxCell id="73" value="" style="endArrow=none;html=1;fontFamily=Courier New;" parent="1" edge="1">
                    <mxGeometry width="50" height="50" relative="1" as="geometry">
                        <mxPoint x="415" y="426" as="sourcePoint"/>
                        <mxPoint x="395" y="426" as="targetPoint"/>
                    </mxGeometry>
                </mxCell>
                <mxCell id="74" value="" style="endArrow=none;html=1;fontFamily=Courier New;" parent="1" edge="1">
                    <mxGeometry width="50" height="50" relative="1" as="geometry">
                        <mxPoint x="415" y="396" as="sourcePoint"/>
                        <mxPoint x="395" y="396" as="targetPoint"/>
                    </mxGeometry>
                </mxCell>
                <mxCell id="75" value="" style="endArrow=none;html=1;fontFamily=Courier New;" parent="1" edge="1">
                    <mxGeometry width="50" height="50" relative="1" as="geometry">
                        <mxPoint x="415" y="367" as="sourcePoint"/>
                        <mxPoint x="395" y="367" as="targetPoint"/>
                    </mxGeometry>
                </mxCell>
                <mxCell id="76" value="" style="endArrow=none;html=1;fontFamily=Courier New;" parent="1" edge="1">
                    <mxGeometry width="50" height="50" relative="1" as="geometry">
                        <mxPoint x="415" y="337" as="sourcePoint"/>
                        <mxPoint x="395" y="337" as="targetPoint"/>
                    </mxGeometry>
                </mxCell>
                <mxCell id="77" value="" style="endArrow=none;html=1;fontFamily=Courier New;" parent="1" edge="1">
                    <mxGeometry width="50" height="50" relative="1" as="geometry">
                        <mxPoint x="415" y="307" as="sourcePoint"/>
                        <mxPoint x="395" y="307" as="targetPoint"/>
                    </mxGeometry>
                </mxCell>
                <mxCell id="78" value="" style="endArrow=none;html=1;fontFamily=Courier New;" parent="1" edge="1">
                    <mxGeometry width="50" height="50" relative="1" as="geometry">
                        <mxPoint x="415" y="278" as="sourcePoint"/>
                        <mxPoint x="395" y="278" as="targetPoint"/>
                    </mxGeometry>
                </mxCell>
                <mxCell id="80" value="" style="endArrow=none;html=1;fontFamily=Courier New;" parent="1" edge="1">
                    <mxGeometry width="50" height="50" relative="1" as="geometry">
                        <mxPoint x="415" y="248" as="sourcePoint"/>
                        <mxPoint x="395" y="248" as="targetPoint"/>
                    </mxGeometry>
                </mxCell>
                <mxCell id="81" value="" style="endArrow=none;html=1;fontFamily=Courier New;" parent="1" edge="1">
                    <mxGeometry width="50" height="50" relative="1" as="geometry">
                        <mxPoint x="415" y="219" as="sourcePoint"/>
                        <mxPoint x="395" y="219" as="targetPoint"/>
                    </mxGeometry>
                </mxCell>
                <mxCell id="82" value="" style="endArrow=none;html=1;fontFamily=Courier New;" parent="1" edge="1">
                    <mxGeometry width="50" height="50" relative="1" as="geometry">
                        <mxPoint x="225" y="100" as="sourcePoint"/>
                        <mxPoint x="205" y="100" as="targetPoint"/>
                    </mxGeometry>
                </mxCell>
                <mxCell id="83" value="" style="endArrow=none;html=1;fontFamily=Courier New;" parent="1" edge="1">
                    <mxGeometry width="50" height="50" relative="1" as="geometry">
                        <mxPoint x="415" y="100" as="sourcePoint"/>
                        <mxPoint x="395" y="100" as="targetPoint"/>
                    </mxGeometry>
                </mxCell>
                <mxCell id="84" value="" style="endArrow=none;html=1;fontFamily=Courier New;" parent="1" edge="1">
                    <mxGeometry width="50" height="50" relative="1" as="geometry">
                        <mxPoint x="415" y="130" as="sourcePoint"/>
                        <mxPoint x="395" y="130" as="targetPoint"/>
                    </mxGeometry>
                </mxCell>
                <mxCell id="85" value="" style="endArrow=none;html=1;fontFamily=Courier New;" parent="1" edge="1">
                    <mxGeometry width="50" height="50" relative="1" as="geometry">
                        <mxPoint x="415" y="159" as="sourcePoint"/>
                        <mxPoint x="395" y="159" as="targetPoint"/>
                    </mxGeometry>
                </mxCell>
                <mxCell id="86" value="" style="endArrow=none;html=1;fontFamily=Courier New;" parent="1" edge="1">
                    <mxGeometry width="50" height="50" relative="1" as="geometry">
                        <mxPoint x="415" y="189" as="sourcePoint"/>
                        <mxPoint x="395" y="189" as="targetPoint"/>
                    </mxGeometry>
                </mxCell>
                <mxCell id="87" value="" style="endArrow=none;html=1;fontFamily=Courier New;" parent="1" edge="1">
                    <mxGeometry width="50" height="50" relative="1" as="geometry">
                        <mxPoint x="225" y="130" as="sourcePoint"/>
                        <mxPoint x="205" y="130" as="targetPoint"/>
                    </mxGeometry>
                </mxCell>
                <mxCell id="88" value="" style="endArrow=none;html=1;fontFamily=Courier New;" parent="1" edge="1">
                    <mxGeometry width="50" height="50" relative="1" as="geometry">
                        <mxPoint x="225" y="159" as="sourcePoint"/>
                        <mxPoint x="205" y="159" as="targetPoint"/>
                    </mxGeometry>
                </mxCell>
                <mxCell id="89" value="" style="endArrow=none;html=1;fontFamily=Courier New;" parent="1" edge="1">
                    <mxGeometry width="50" height="50" relative="1" as="geometry">
                        <mxPoint x="225" y="189" as="sourcePoint"/>
                        <mxPoint x="205" y="189" as="targetPoint"/>
                    </mxGeometry>
                </mxCell>
                <mxCell id="90" value="" style="endArrow=none;html=1;fontFamily=Courier New;" parent="1" edge="1">
                    <mxGeometry width="50" height="50" relative="1" as="geometry">
                        <mxPoint x="225" y="219" as="sourcePoint"/>
                        <mxPoint x="205" y="219" as="targetPoint"/>
                    </mxGeometry>
                </mxCell>
                <mxCell id="91" value="" style="endArrow=none;html=1;fontFamily=Courier New;" parent="1" edge="1">
                    <mxGeometry width="50" height="50" relative="1" as="geometry">
                        <mxPoint x="225" y="515" as="sourcePoint"/>
                        <mxPoint x="205" y="515" as="targetPoint"/>
                    </mxGeometry>
                </mxCell>
                <mxCell id="92" value="" style="endArrow=none;html=1;fontFamily=Courier New;" parent="1" edge="1">
                    <mxGeometry width="50" height="50" relative="1" as="geometry">
                        <mxPoint x="225" y="485" as="sourcePoint"/>
                        <mxPoint x="205" y="485" as="targetPoint"/>
                    </mxGeometry>
                </mxCell>
                <mxCell id="93" value="" style="endArrow=none;html=1;fontFamily=Courier New;" parent="1" edge="1">
                    <mxGeometry width="50" height="50" relative="1" as="geometry">
                        <mxPoint x="225" y="456" as="sourcePoint"/>
                        <mxPoint x="205" y="456" as="targetPoint"/>
                    </mxGeometry>
                </mxCell>
                <mxCell id="94" value="" style="endArrow=none;html=1;fontFamily=Courier New;" parent="1" edge="1">
                    <mxGeometry width="50" height="50" relative="1" as="geometry">
                        <mxPoint x="225" y="396" as="sourcePoint"/>
                        <mxPoint x="205" y="396" as="targetPoint"/>
                    </mxGeometry>
                </mxCell>
                <mxCell id="95" value="" style="endArrow=none;html=1;fontFamily=Courier New;" parent="1" edge="1">
                    <mxGeometry width="50" height="50" relative="1" as="geometry">
                        <mxPoint x="225" y="367" as="sourcePoint"/>
                        <mxPoint x="205" y="367" as="targetPoint"/>
                    </mxGeometry>
                </mxCell>
                <mxCell id="96" value="" style="endArrow=none;html=1;fontFamily=Courier New;" parent="1" edge="1">
                    <mxGeometry width="50" height="50" relative="1" as="geometry">
                        <mxPoint x="225" y="426" as="sourcePoint"/>
                        <mxPoint x="205" y="426" as="targetPoint"/>
                    </mxGeometry>
                </mxCell>
                <mxCell id="97" value="" style="endArrow=none;html=1;fontFamily=Courier New;" parent="1" edge="1">
                    <mxGeometry width="50" height="50" relative="1" as="geometry">
                        <mxPoint x="225" y="337" as="sourcePoint"/>
                        <mxPoint x="205" y="337" as="targetPoint"/>
                    </mxGeometry>
                </mxCell>
                <mxCell id="98" value="" style="endArrow=none;html=1;fontFamily=Courier New;" parent="1" edge="1">
                    <mxGeometry width="50" height="50" relative="1" as="geometry">
                        <mxPoint x="225" y="307" as="sourcePoint"/>
                        <mxPoint x="205" y="307" as="targetPoint"/>
                    </mxGeometry>
                </mxCell>
                <mxCell id="99" value="" style="endArrow=none;html=1;fontFamily=Courier New;" parent="1" edge="1">
                    <mxGeometry width="50" height="50" relative="1" as="geometry">
                        <mxPoint x="225" y="278" as="sourcePoint"/>
                        <mxPoint x="205" y="278" as="targetPoint"/>
                    </mxGeometry>
                </mxCell>
                <mxCell id="100" value="" style="endArrow=none;html=1;fontFamily=Courier New;" parent="1" edge="1">
                    <mxGeometry width="50" height="50" relative="1" as="geometry">
                        <mxPoint x="225" y="248" as="sourcePoint"/>
                        <mxPoint x="205" y="248" as="targetPoint"/>
                    </mxGeometry>
                </mxCell>
                <mxCell id="115" value="" style="group;rotation=-90;" parent="1" vertex="1" connectable="0">
                    <mxGeometry x="230" y="405" width="160" height="90" as="geometry"/>
                </mxCell>
                <mxCell id="103" value="" style="rounded=0;whiteSpace=wrap;html=1;fontFamily=Courier New;rotation=-90;fillColor=none;" parent="115" vertex="1">
                    <mxGeometry x="45" y="55" width="10" height="10" as="geometry"/>
                </mxCell>
                <mxCell id="104" value="MISO" style="text;html=1;align=right;verticalAlign=middle;resizable=0;points=[];autosize=1;strokeColor=none;fillColor=none;fontFamily=Courier New;rotation=-90;" parent="115" vertex="1">
                    <mxGeometry x="25" y="85" width="50" height="30" as="geometry"/>
                </mxCell>
                <mxCell id="105" value="" style="rounded=0;whiteSpace=wrap;html=1;fontFamily=Courier New;rotation=-90;fillColor=none;" parent="115" vertex="1">
                    <mxGeometry x="75" y="55" width="10" height="10" as="geometry"/>
                </mxCell>
                <mxCell id="106" value="SCK" style="text;html=1;align=right;verticalAlign=middle;resizable=0;points=[];autosize=1;strokeColor=none;fillColor=none;fontFamily=Courier New;rotation=-90;" parent="115" vertex="1">
                    <mxGeometry x="55" y="85" width="50" height="30" as="geometry"/>
                </mxCell>
                <mxCell id="107" value="" style="rounded=0;whiteSpace=wrap;html=1;fontFamily=Courier New;rotation=-90;fillColor=none;" parent="115" vertex="1">
                    <mxGeometry x="105" y="55" width="10" height="10" as="geometry"/>
                </mxCell>
                <mxCell id="108" value="RST" style="text;html=1;align=right;verticalAlign=middle;resizable=0;points=[];autosize=1;strokeColor=none;fillColor=none;fontFamily=Courier New;rotation=-90;" parent="115" vertex="1">
                    <mxGeometry x="85" y="85" width="50" height="30" as="geometry"/>
                </mxCell>
                <mxCell id="109" value="" style="rounded=0;whiteSpace=wrap;html=1;fontFamily=Courier New;rotation=-90;fillColor=none;" parent="115" vertex="1">
                    <mxGeometry x="45" y="25" width="10" height="10" as="geometry"/>
                </mxCell>
                <mxCell id="110" value="" style="rounded=0;whiteSpace=wrap;html=1;fontFamily=Courier New;rotation=-90;fillColor=none;" parent="115" vertex="1">
                    <mxGeometry x="75" y="25" width="10" height="10" as="geometry"/>
                </mxCell>
                <mxCell id="111" value="" style="rounded=0;whiteSpace=wrap;html=1;fontFamily=Courier New;rotation=-90;fillColor=none;" parent="115" vertex="1">
                    <mxGeometry x="105" y="25" width="10" height="10" as="geometry"/>
                </mxCell>
                <mxCell id="112" value="5V" style="text;html=1;align=left;verticalAlign=middle;resizable=0;points=[];autosize=1;strokeColor=none;fillColor=none;fontFamily=Courier New;rotation=-90;" parent="115" vertex="1">
                    <mxGeometry x="30" y="-20" width="40" height="30" as="geometry"/>
                </mxCell>
                <mxCell id="113" value="MOSI" style="text;html=1;align=left;verticalAlign=middle;resizable=0;points=[];autosize=1;strokeColor=none;fillColor=none;fontFamily=Courier New;rotation=-90;" parent="115" vertex="1">
                    <mxGeometry x="55" y="-25" width="50" height="30" as="geometry"/>
                </mxCell>
                <mxCell id="114" value="GND" style="text;html=1;align=left;verticalAlign=middle;resizable=0;points=[];autosize=1;strokeColor=none;fillColor=none;fontFamily=Courier New;rotation=-90;" parent="115" vertex="1">
                    <mxGeometry x="85" y="-25" width="50" height="30" as="geometry"/>
                </mxCell>
                <mxCell id="27" value="A1 / PC1 / 15" style="text;html=1;align=right;verticalAlign=middle;resizable=0;points=[];autosize=1;strokeColor=none;fillColor=none;fontFamily=Courier New;rotation=-360;" parent="1" vertex="1">
                    <mxGeometry x="80" y="204" width="120" height="30" as="geometry"/>
                </mxCell>
                <mxCell id="28" value="A2 / PC2 / 16" style="text;html=1;align=right;verticalAlign=middle;resizable=0;points=[];autosize=1;strokeColor=none;fillColor=none;fontFamily=Courier New;rotation=-360;" parent="1" vertex="1">
                    <mxGeometry x="80" y="233" width="120" height="30" as="geometry"/>
                </mxCell>
                <mxCell id="36" value="GND" style="text;html=1;align=right;verticalAlign=middle;resizable=0;points=[];autosize=1;strokeColor=none;fillColor=none;fontFamily=Courier New;rotation=-360;" parent="1" vertex="1">
                    <mxGeometry x="150" y="470" width="50" height="30" as="geometry"/>
                </mxCell>
                <mxCell id="37" value="VIN" style="text;html=1;align=right;verticalAlign=middle;resizable=0;points=[];autosize=1;strokeColor=none;fillColor=none;fontFamily=Courier New;rotation=-360;" parent="1" vertex="1">
                    <mxGeometry x="150" y="500" width="50" height="30" as="geometry"/>
                </mxCell>
                <mxCell id="23" value="SCK /&amp;nbsp; &amp;nbsp; / PB5 / 13" style="text;html=1;align=right;verticalAlign=middle;resizable=0;points=[];autosize=1;strokeColor=none;fillColor=none;fontFamily=Courier New;rotation=-360;" parent="1" vertex="1">
                    <mxGeometry x="40" y="84.99999999999999" width="160" height="30" as="geometry"/>
                </mxCell>
                <mxCell id="24" value="3V3" style="text;html=1;align=right;verticalAlign=middle;resizable=0;points=[];autosize=1;strokeColor=none;fillColor=none;fontFamily=Courier New;rotation=-360;" parent="1" vertex="1">
                    <mxGeometry x="150" y="114.99999999999999" width="50" height="30" as="geometry"/>
                </mxCell>
                <mxCell id="25" value="AREF" style="text;html=1;align=right;verticalAlign=middle;resizable=0;points=[];autosize=1;strokeColor=none;fillColor=none;fontFamily=Courier New;rotation=-360;" parent="1" vertex="1">
                    <mxGeometry x="150" y="144" width="50" height="30" as="geometry"/>
                </mxCell>
                <mxCell id="26" value="A0 / PC0 / 14" style="text;html=1;align=right;verticalAlign=middle;resizable=0;points=[];autosize=1;strokeColor=none;fillColor=none;fontFamily=Courier New;rotation=-360;" parent="1" vertex="1">
                    <mxGeometry x="80" y="174" width="120" height="30" as="geometry"/>
                </mxCell>
                <mxCell id="29" value="A3 / PC3 / 17" style="text;html=1;align=right;verticalAlign=middle;resizable=0;points=[];autosize=1;strokeColor=none;fillColor=none;fontFamily=Courier New;rotation=-360;" parent="1" vertex="1">
                    <mxGeometry x="80" y="263" width="120" height="30" as="geometry"/>
                </mxCell>
                <mxCell id="30" value="SDA / A4 / PC4 / 18" style="text;html=1;align=right;verticalAlign=middle;resizable=0;points=[];autosize=1;strokeColor=none;fillColor=none;fontFamily=Courier New;rotation=-360;" parent="1" vertex="1">
                    <mxGeometry x="40" y="293" width="160" height="30" as="geometry"/>
                </mxCell>
                <mxCell id="31" value="SCL / A5 / PC5 / 19" style="text;html=1;align=right;verticalAlign=middle;resizable=0;points=[];autosize=1;strokeColor=none;fillColor=none;fontFamily=Courier New;rotation=-360;" parent="1" vertex="1">
                    <mxGeometry x="40" y="322" width="160" height="30" as="geometry"/>
                </mxCell>
                <mxCell id="32" value="A6 /&amp;nbsp; &amp;nbsp; &amp;nbsp;/&amp;nbsp; &amp;nbsp;" style="text;html=1;align=right;verticalAlign=middle;resizable=0;points=[];autosize=1;strokeColor=none;fillColor=none;fontFamily=Courier New;rotation=-360;" parent="1" vertex="1">
                    <mxGeometry x="80" y="352" width="120" height="30" as="geometry"/>
                </mxCell>
                <mxCell id="33" value="A7 /&amp;nbsp; &amp;nbsp; &amp;nbsp;/&amp;nbsp; &amp;nbsp;" style="text;html=1;align=right;verticalAlign=middle;resizable=0;points=[];autosize=1;strokeColor=none;fillColor=none;fontFamily=Courier New;rotation=-360;" parent="1" vertex="1">
                    <mxGeometry x="80" y="381" width="120" height="30" as="geometry"/>
                </mxCell>
                <mxCell id="34" value="5V" style="text;html=1;align=right;verticalAlign=middle;resizable=0;points=[];autosize=1;strokeColor=none;fillColor=none;fontFamily=Courier New;rotation=-360;" parent="1" vertex="1">
                    <mxGeometry x="160" y="411" width="40" height="30" as="geometry"/>
                </mxCell>
                <mxCell id="35" value="PC6 / RST" style="text;html=1;align=right;verticalAlign=middle;resizable=0;points=[];autosize=1;strokeColor=none;fillColor=none;fontFamily=Courier New;rotation=-360;" parent="1" vertex="1">
                    <mxGeometry x="110" y="441" width="90" height="30" as="geometry"/>
                </mxCell>
                <mxCell id="8" value="&amp;nbsp;12 / PB4 /&amp;nbsp; &amp;nbsp; &amp;nbsp;/ MISO" style="text;html=1;align=left;verticalAlign=middle;resizable=0;points=[];autosize=1;strokeColor=none;fillColor=none;fontFamily=Courier New;rotation=-360;" parent="1" vertex="1">
                    <mxGeometry x="425" y="84.99999999999999" width="180" height="30" as="geometry"/>
                </mxCell>
                <mxCell id="9" value="&amp;nbsp;11 / PB3 / PWM / MOSI" style="text;html=1;align=left;verticalAlign=middle;resizable=0;points=[];autosize=1;strokeColor=none;fillColor=none;fontFamily=Courier New;rotation=-360;" parent="1" vertex="1">
                    <mxGeometry x="425" y="114.99999999999999" width="180" height="30" as="geometry"/>
                </mxCell>
                <mxCell id="10" value="&amp;nbsp;10 / PB2 / PWM / SS" style="text;html=1;align=left;verticalAlign=middle;resizable=0;points=[];autosize=1;strokeColor=none;fillColor=none;fontFamily=Courier New;rotation=-360;" parent="1" vertex="1">
                    <mxGeometry x="425" y="144" width="170" height="30" as="geometry"/>
                </mxCell>
                <mxCell id="11" value="&amp;nbsp; 9 / PB1 / PWM" style="text;html=1;align=left;verticalAlign=middle;resizable=0;points=[];autosize=1;strokeColor=none;fillColor=none;fontFamily=Courier New;rotation=-360;" parent="1" vertex="1">
                    <mxGeometry x="425" y="174" width="130" height="30" as="geometry"/>
                </mxCell>
                <mxCell id="12" value="&amp;nbsp; 8 / PB0" style="text;html=1;align=left;verticalAlign=middle;resizable=0;points=[];autosize=1;strokeColor=none;fillColor=none;fontFamily=Courier New;rotation=-360;" parent="1" vertex="1">
                    <mxGeometry x="425" y="204" width="90" height="30" as="geometry"/>
                </mxCell>
                <mxCell id="13" value="&amp;nbsp; 7 / PD7" style="text;html=1;align=left;verticalAlign=middle;resizable=0;points=[];autosize=1;strokeColor=none;fillColor=none;fontFamily=Courier New;rotation=-360;" parent="1" vertex="1">
                    <mxGeometry x="425" y="233" width="90" height="30" as="geometry"/>
                </mxCell>
                <mxCell id="14" value="&amp;nbsp; 6 / PD6 / PWM" style="text;html=1;align=left;verticalAlign=middle;resizable=0;points=[];autosize=1;strokeColor=none;fillColor=none;fontFamily=Courier New;rotation=-360;" parent="1" vertex="1">
                    <mxGeometry x="425" y="263" width="130" height="30" as="geometry"/>
                </mxCell>
                <mxCell id="15" value="&amp;nbsp; 5 / PD5 / PWM" style="text;html=1;align=left;verticalAlign=middle;resizable=0;points=[];autosize=1;strokeColor=none;fillColor=none;fontFamily=Courier New;rotation=-360;" parent="1" vertex="1">
                    <mxGeometry x="425" y="293" width="130" height="30" as="geometry"/>
                </mxCell>
                <mxCell id="16" value="&amp;nbsp; 4 / PD4" style="text;html=1;align=left;verticalAlign=middle;resizable=0;points=[];autosize=1;strokeColor=none;fillColor=none;fontFamily=Courier New;rotation=-360;" parent="1" vertex="1">
                    <mxGeometry x="425" y="322" width="90" height="30" as="geometry"/>
                </mxCell>
                <mxCell id="17" value="&amp;nbsp; 3 / PD3 / PWM / INT1" style="text;html=1;align=left;verticalAlign=middle;resizable=0;points=[];autosize=1;strokeColor=none;fillColor=none;fontFamily=Courier New;rotation=-360;" parent="1" vertex="1">
                    <mxGeometry x="425" y="352" width="180" height="30" as="geometry"/>
                </mxCell>
                <mxCell id="18" value="&amp;nbsp; 2 / PD2 /&amp;nbsp; &amp;nbsp; &amp;nbsp;/ INT0" style="text;html=1;align=left;verticalAlign=middle;resizable=0;points=[];autosize=1;strokeColor=none;fillColor=none;fontFamily=Courier New;rotation=-360;" parent="1" vertex="1">
                    <mxGeometry x="425" y="381" width="180" height="30" as="geometry"/>
                </mxCell>
                <mxCell id="19" value="GND" style="text;html=1;align=left;verticalAlign=middle;resizable=0;points=[];autosize=1;strokeColor=none;fillColor=none;fontFamily=Courier New;rotation=-360;" parent="1" vertex="1">
                    <mxGeometry x="425" y="411" width="50" height="30" as="geometry"/>
                </mxCell>
                <mxCell id="20" value="RST / PC6" style="text;html=1;align=left;verticalAlign=middle;resizable=0;points=[];autosize=1;strokeColor=none;fillColor=none;fontFamily=Courier New;rotation=-360;" parent="1" vertex="1">
                    <mxGeometry x="425" y="441" width="90" height="30" as="geometry"/>
                </mxCell>
                <mxCell id="21" value="&amp;nbsp; 1 / PD1 /&amp;nbsp; &amp;nbsp; &amp;nbsp;/ TX" style="text;html=1;align=left;verticalAlign=middle;resizable=0;points=[];autosize=1;strokeColor=none;fillColor=none;fontFamily=Courier New;rotation=-360;" parent="1" vertex="1">
                    <mxGeometry x="425" y="470" width="170" height="30" as="geometry"/>
                </mxCell>
                <mxCell id="22" value="&amp;nbsp; 0 / PD0 /&amp;nbsp; &amp;nbsp; &amp;nbsp;/ RX" style="text;html=1;align=left;verticalAlign=middle;resizable=0;points=[];autosize=1;strokeColor=none;fillColor=none;fontFamily=Courier New;rotation=-360;" parent="1" vertex="1">
                    <mxGeometry x="425" y="500" width="170" height="30" as="geometry"/>
                </mxCell>
            </root>
        </mxGraphModel>
    </diagram>
</mxfile>